<?xml version="1.0" encoding="UTF-8"?>
<svg id="Capa_2" data-name="Capa 2" xmlns="http://www.w3.org/2000/svg" viewBox="0 0 42.37 42.37">
  <defs>
    <style>
      .cls-1 {
        fill: #fff;
      }

      .cls-2 {
        fill: #1b0166;
      }

      .cls-3 {
        fill: #63d2bf;
      }
    </style>
  </defs>
  <g id="Capa_1-2" data-name="Capa 1">
    <path class="cls-2" d="m32.6,42.37H9.77c-5.4,0-9.77-4.37-9.77-9.77V9.77C0,4.37,4.37,0,9.77,0h22.83c5.39,0,9.77,4.37,9.77,9.77v22.83c0,5.4-4.38,9.77-9.77,9.77"/>
    <g>
      <path class="cls-1" d="m18.16,23.99h-.68c-.64,0-1.19-.23-1.65-.68s-.68-1-.68-1.65v-3.96h1.65c.35,0,.64-.12.88-.36s.37-.53.37-.87-.12-.64-.37-.88-.54-.37-.88-.37h-1.65v-3.1c0-.35-.12-.64-.36-.88-.24-.24-.53-.35-.87-.35s-.64.12-.88.35c-.24.24-.37.54-.37.88v9.54c0,1.33.47,2.46,1.41,3.4.94.94,2.08,1.41,3.4,1.41h.68c.35,0,.64-.12.88-.37.24-.24.37-.54.37-.88s-.12-.63-.37-.87c-.24-.24-.54-.37-.88-.37Z"/>
      <g>
        <path class="cls-3" d="m29.71,10.43c-.38-.09-.77-.12-1.18-.11h-.03c-1.2.05-2.21.52-3.02,1.41-.73.79-1.11,1.7-1.15,2.73.27.05.54.07.83.07h.03c1.25,0,2.32-.44,3.21-1.33.79-.78,1.22-1.71,1.31-2.78Z"/>
        <path class="cls-3" d="m21.93,13.22c.67.67,1.44,1.09,2.32,1.25-.06-1.18-.53-2.18-1.41-2.99-.66-.6-1.4-.97-2.23-1.1.08,1.09.51,2.04,1.32,2.84Z"/>
      </g>
      <path class="cls-1" d="m25.08,15.85h-.03c-1.26,0-2.33.44-3.22,1.33-.9.9-1.34,1.97-1.34,3.23v10.4c0,.34.12.64.35.88.23.24.51.36.82.36s.61-.12.84-.36c.23-.24.35-.54.35-.88v-4.95c.69.39,1.42.58,2.21.58h.03c1.26,0,2.33-.45,3.23-1.34.89-.89,1.33-1.96,1.33-3.23v-1.45c0-1.26-.44-2.33-1.33-3.23-.9-.89-1.97-1.33-3.23-1.33Zm2.21,6.02c0,.61-.22,1.14-.64,1.57-.44.43-.96.64-1.57.64h-.03c-.61,0-1.12-.21-1.55-.64-.44-.43-.66-.95-.66-1.57v-1.45c0-.61.22-1.13.66-1.57.43-.43.95-.64,1.55-.64h.03c.61,0,1.13.21,1.57.64.43.44.64.96.64,1.57v1.45Z"/>
    </g>
  </g>
</svg>